<svg id="Layer_1" enable-background="new 0 0 64 64" height="512" viewBox="0 0 64 64" width="512" xmlns="http://www.w3.org/2000/svg"><path d="m23 22c-.553 0-1 .447-1 1v5c0 .553.447 1 1 1s1-.447 1-1v-5c0-.553-.447-1-1-1z"/><path d="m29 22c-.553 0-1 .447-1 1v5c0 .553.447 1 1 1s1-.447 1-1v-5c0-.553-.447-1-1-1z"/><path d="m35 22c-.553 0-1 .447-1 1v5c0 .553.447 1 1 1s1-.447 1-1v-5c0-.553-.447-1-1-1z"/><path d="m41 22c-.553 0-1 .447-1 1v5c0 .553.447 1 1 1s1-.447 1-1v-5c0-.553-.447-1-1-1z"/><path d="m13 46.994h38c.549 0 .994-.445.994-.994v-7.006h3.006c.549 0 .994-.445.994-.994v-21c0-.549-.445-.994-.994-.994h-46c-.549 0-.994.445-.994.994v21c0 .549.445.994.994.994h3.006v7.006c0 .549.445.994.994.994zm37.006-1.988h-36.012v-6.012h36.012zm-40.012-8v-2.012h35.006c.549 0 .994-.445.994-.994s-.445-.994-.994-.994h-35.006v-15.012h44.012v15.012h-3.006c-.549 0-.994.445-.994.994s.445.994.994.994h3.006v2.012h-3.006-38z"/><circle cx="48" cy="34" r="1"/></svg>